<svg width="628" height="620" viewBox="0 0 628 620" fill="none" xmlns="http://www.w3.org/2000/svg">
<g id="Frame">
<path id="Vector" opacity="0.07" d="M126.101 441.233C126.101 332.569 215.327 244.479 325.394 244.479C435.46 244.479 524.687 332.569 524.687 441.233" fill="#2A94F4"/>
<g id="Group" opacity="0.2">
<g id="Group_2" opacity="0.2">
<path id="Vector_2" opacity="0.2" d="M130.542 442.21C130.542 442.21 176.735 333.454 193.291 343.513C209.847 353.571 248.954 442.21 248.954 442.21H130.542Z" fill="#2A94F4"/>
</g>
</g>
<g id="Group_3" opacity="0.2">
<g id="Group_4" opacity="0.2">
<path id="Vector_3" opacity="0.2" d="M528.52 442.21C528.52 442.21 486.292 338.096 471.157 347.725C456.022 357.354 420.271 442.21 420.271 442.21H528.52Z" fill="#2A94F4"/>
</g>
</g>
<g id="Group_5">
<path id="Vector_4" d="M334.308 444.096H305.017C303.962 444.096 303.107 443.251 303.107 442.21C303.107 441.168 303.962 440.324 305.017 440.324H334.308C335.363 440.324 336.218 441.168 336.218 442.21C336.218 443.251 335.363 444.096 334.308 444.096Z" fill="#5E349D"/>
</g>
<g id="Group_6">
<path id="Vector_5" d="M317.833 294.989C317.833 295.694 317.253 296.266 316.539 296.266C315.825 296.266 315.246 295.694 315.246 294.989C315.246 294.284 315.825 293.712 316.539 293.712C317.253 293.712 317.833 294.284 317.833 294.989Z" fill="#D3D3D3"/>
</g>
<g id="Group_7" opacity="0.4">
<path id="Vector_6" opacity="0.4" d="M526.83 242.361H394.628C390.075 242.361 386.35 238.683 386.35 234.188C386.35 229.693 390.075 226.016 394.628 226.016H526.83C531.383 226.016 535.108 229.693 535.108 234.188C535.108 238.683 531.383 242.361 526.83 242.361Z" fill="#D3D3D3"/>
</g>
<g id="Group_8" opacity="0.4">
<path id="Vector_7" opacity="0.4" d="M233.839 220.537H153.846C149.293 220.537 145.568 216.86 145.568 212.365C145.568 207.87 149.293 204.192 153.846 204.192H233.839C238.392 204.192 242.117 207.87 242.117 212.365C242.117 216.86 238.392 220.537 233.839 220.537Z" fill="#D3D3D3"/>
</g>
<g id="Group_9" opacity="0.4">
<path id="Vector_8" opacity="0.4" d="M491.423 212.366H411.431C406.878 212.366 403.153 208.688 403.153 204.193C403.153 199.698 406.878 196.021 411.431 196.021H491.423C495.976 196.021 499.701 199.698 499.701 204.193C499.701 208.687 495.976 212.366 491.423 212.366Z" fill="#D3D3D3"/>
</g>
<g id="Group_10" opacity="0.4">
<path id="Vector_9" opacity="0.4" d="M161.923 250.533H81.9302C77.3772 250.533 73.6522 246.856 73.6522 242.361C73.6522 237.866 77.3772 234.188 81.9302 234.188H161.923C166.476 234.188 170.201 237.866 170.201 242.361C170.201 246.856 166.476 250.533 161.923 250.533Z" fill="#D3D3D3"/>
</g>
<g id="Group_11" opacity="0.4">
<path id="Vector_10" opacity="0.4" d="M505.358 310H425.365C420.812 310 417.087 306.323 417.087 301.828C417.087 297.333 420.812 293.655 425.365 293.655H505.357C509.91 293.655 513.635 297.333 513.635 301.828C513.636 306.323 509.91 310 505.358 310Z" fill="#D3D3D3"/>
</g>
<g id="Group_12" opacity="0.4">
<path id="Vector_11" opacity="0.4" d="M225.137 318.173H123.352C119.324 318.173 116.029 314.919 116.029 310.943V309.058C116.029 305.081 119.324 301.828 123.352 301.828H225.137C229.165 301.828 232.461 305.081 232.461 309.058V310.943C232.461 314.919 229.165 318.173 225.137 318.173Z" fill="#D3D3D3"/>
</g>
<path id="Vector_12" d="M570.473 449.842C570.473 456.019 565.401 461.026 559.144 461.026H104.72C98.4634 461.026 93.3911 456.019 93.3911 449.842C93.3911 443.665 98.4634 438.657 104.72 438.657H559.144C565.401 438.657 570.473 443.665 570.473 449.842Z" fill="#D3D3D3"/>
<path id="Vector_13" opacity="0.4" d="M153.219 392.643C153.219 392.643 144.193 424.161 166.332 425.236C188.47 426.31 185.026 404.394 181.179 395.803C177.333 387.211 206.515 356.946 174.763 340.61C143.012 324.275 131.952 385.102 153.219 392.643Z" fill="#2A94F4"/>
<path id="Vector_14" opacity="0.4" d="M115.151 404.954C115.151 404.954 108.67 423.218 121.685 424.644C134.701 426.071 133.476 413.024 131.524 407.819C129.571 402.615 147.893 385.813 129.769 375.041C111.645 364.27 102.887 399.744 115.151 404.954Z" fill="#2A94F4"/>
<path id="Vector_15" d="M122.735 388.191L122.948 440.324" stroke="#4D4D4D" stroke-miterlimit="10"/>
<path id="Vector_16" d="M128.543 400.578L122.814 407.56L116.743 401.323" stroke="#4D4D4D" stroke-miterlimit="10"/>
<path id="Vector_17" d="M164.619 359.663L165.446 438.657" stroke="#4D4D4D" stroke-miterlimit="10"/>
<path id="Vector_18" d="M174.645 369.816L164.819 378.762L155.919 370.552" stroke="#4D4D4D" stroke-miterlimit="10"/>
<path id="Vector_19" d="M174.591 386.423L164.765 395.369L155.865 387.158" stroke="#4D4D4D" stroke-miterlimit="10"/>
<path id="Vector_20" opacity="0.4" d="M518.161 392.643C518.161 392.643 509.135 424.161 531.273 425.236C553.412 426.31 549.968 404.394 546.121 395.803C542.275 387.211 571.457 356.946 539.705 340.61C507.954 324.275 496.893 385.102 518.161 392.643Z" fill="#2A94F4"/>
<path id="Vector_21" opacity="0.4" d="M480.093 404.954C480.093 404.954 473.612 423.218 486.627 424.644C499.643 426.071 498.418 413.024 496.465 407.819C494.513 402.615 512.835 385.813 494.711 375.041C476.587 364.27 467.829 399.744 480.093 404.954Z" fill="#2A94F4"/>
<path id="Vector_22" d="M487.676 388.191L487.89 440.324" stroke="#4D4D4D" stroke-miterlimit="10"/>
<path id="Vector_23" d="M493.485 400.578L487.756 407.56L481.685 401.323" stroke="#4D4D4D" stroke-miterlimit="10"/>
<path id="Vector_24" d="M529.56 359.663L530.388 438.657" stroke="#4D4D4D" stroke-miterlimit="10"/>
<path id="Vector_25" d="M539.586 369.816L529.76 378.762L520.861 370.552" stroke="#4D4D4D" stroke-miterlimit="10"/>
<path id="Vector_26" d="M539.532 386.423L529.706 395.369L520.807 387.158" stroke="#4D4D4D" stroke-miterlimit="10"/>
<g id="Group_13">
<g id="Group_14">
<path id="Vector_27" d="M341.56 366.812L335.561 325.195L319.376 323.002L310.958 366.511L341.56 366.812Z" fill="#FAB9AF"/>
<path id="Vector_28" d="M329.05 431.297L329.067 435.987C329.071 436.942 328.939 437.892 328.677 438.81L328.264 440.255C327.925 441.441 328.828 442.619 330.077 442.614C333.313 442.602 338.844 442.611 340.27 442.613C340.503 442.614 340.731 442.458 340.752 442.229C340.872 440.859 336.865 439.942 333.847 438.789C331.549 437.911 331.671 433.831 331.954 431.449C332.061 430.549 331.301 429.783 330.387 429.859C329.629 429.921 329.048 430.547 329.05 431.297Z" fill="#0E538C"/>
<path id="Vector_29" d="M306.808 429.981L305.171 435.347C305.099 435.584 304.991 435.81 304.85 436.015L303.69 437.717C302.953 438.797 303.483 440.272 304.745 440.652C304.745 440.652 307.085 441.465 309.498 442.248C311.967 443.049 315.073 442.379 315.073 441.736C315.073 440.307 313.723 441.441 311.462 439.949C310.705 439.449 309.923 438.925 309.226 438.385C307.28 436.877 308.979 433.059 310.17 430.909C310.598 430.135 310.144 429.175 309.27 428.992L308.706 428.873C307.878 428.698 307.053 429.181 306.808 429.981Z" fill="#0E538C"/>
<path id="Vector_30" d="M323.531 367.214L341.465 365.728C341.465 365.728 343.271 378.614 338.739 401.943C336.613 412.883 332.183 433.788 332.183 433.788C331.085 434.262 329.969 434.381 328.832 434.101C328.832 434.101 328.495 424.88 328.29 414.949C328.093 405.425 328.039 395.249 327.425 391.919C326.169 385.118 323.531 367.214 323.531 367.214Z" fill="#EC9B69"/>
<path id="Vector_31" opacity="0.07" d="M323.531 367.214L341.465 365.728C341.465 365.728 343.271 378.614 338.739 401.943C336.613 412.883 332.183 433.788 332.183 433.788C331.085 434.262 329.969 434.381 328.832 434.101C328.832 434.101 328.495 424.88 328.29 414.949C328.093 405.425 328.039 395.249 327.425 391.919C326.169 385.118 323.531 367.214 323.531 367.214Z" fill="black"/>
<path id="Vector_32" d="M327.233 367.438C329.084 377.249 333.221 391.92 325.253 405.702C317.285 419.484 308.917 433.812 308.917 433.812C307.839 433.856 306.861 433.47 305.952 432.789C305.952 432.789 307.349 426.541 309.369 419.245C311.679 410.899 314.605 401.082 313.772 395.964C312.209 386.371 310.414 373.595 310.958 367.391C311.502 361.187 326.259 362.28 327.233 367.438Z" fill="#EC9B69"/>
<path id="Vector_33" opacity="0.07" d="M327.233 367.438C329.084 377.249 333.221 391.92 325.253 405.702C317.285 419.484 308.917 433.812 308.917 433.812C307.839 433.856 306.861 433.47 305.952 432.789C305.952 432.789 307.349 426.541 309.369 419.245C311.679 410.899 314.605 401.082 313.772 395.964C312.209 386.371 310.414 373.595 310.958 367.391C311.502 361.187 326.259 362.28 327.233 367.438Z" fill="black"/>
<path id="Vector_34" d="M342.18 365.752L335.561 325.195L319.376 323.002L310.678 365.828C310.515 366.632 311.043 367.414 311.86 367.567C314.873 368.131 322.141 369.309 330.276 369.309C336.348 369.309 339.761 368.143 341.313 367.405C341.942 367.105 342.291 366.432 342.18 365.752Z" fill="white"/>
<path id="Vector_35" d="M324.432 325.528C324.432 328.449 323.895 331.343 322.884 334.089C320.906 339.461 317.94 349.619 319.703 358.568C322.241 371.456 325.504 376.665 321.274 379.668C317.043 382.672 308.93 377.66 308.696 375.99C308.462 374.319 310.275 353.797 312.33 344.907C314.385 336.016 320.14 323.234 320.14 323.234L322.578 323.491C323.632 323.603 324.432 324.481 324.432 325.528Z" fill="#EC9B69"/>
<path id="Vector_36" d="M331.17 324.6C331.17 324.6 333.977 330.589 332.998 339.194C332.019 347.799 329.751 374.002 337.682 377.958C340.193 379.212 345.929 373.663 345.929 371.604C345.929 369.546 344.015 362.655 342.201 356.39C340.388 350.125 336.016 325.256 336.016 325.256L331.17 324.6Z" fill="#EC9B69"/>
<g id="Group_15">
<path id="Vector_37" d="M328.91 306.038C325.298 306.038 323.95 308.576 323.882 313.272C323.856 315.031 324.658 316.774 325.302 317.886C325.782 318.713 325.913 319.692 325.64 320.605L324.846 323.256C324.307 325.714 325.49 327.063 327.236 327.552C328.1 327.795 329.137 327.607 329.892 327.125C330.79 326.552 330.864 325.32 330.697 324.277L330.492 323.522C330.216 322.504 330.814 321.406 331.857 321.181C334.638 320.581 335.036 317.719 335.782 313.273C336.558 308.639 332.523 306.038 328.91 306.038Z" fill="#FAB9AF"/>
<path id="Vector_38" d="M328.777 303.427C326.272 303.427 322.134 304.824 322.657 308.393L323.119 310.917C323.303 311.925 324.155 312.68 325.189 312.768C325.285 313.117 325.605 313.359 325.972 313.359C326.419 313.359 326.782 313.001 326.782 312.559C326.782 311.42 327.592 310.449 328.717 310.199C330.097 309.893 331.571 309.82 333.113 310.23C335.943 310.98 339.302 306.355 339.306 306.308C339.306 306.308 337.873 307.391 335.039 306.363C332.206 305.336 333.387 303.289 328.777 303.427Z" fill="#0E538C"/>
<path id="Vector_39" d="M325.873 313.359C325.873 314.448 325.462 315.33 324.4 315.33C323.339 315.33 322.657 313.833 322.657 312.744C322.657 311.655 323.339 311.388 324.4 311.388C325.462 311.388 325.873 312.27 325.873 313.359Z" fill="#FAB9AF"/>
</g>
<path id="Vector_40" d="M320.4 311.696C320.4 311.696 320.017 312.589 319.103 313.846C318.648 314.477 318.057 315.195 317.331 315.964C316.615 316.744 315.806 317.617 314.911 318.551C314.022 319.492 313.042 320.489 312.056 321.582C311.061 322.664 310.081 323.864 309.167 325.148C308.275 326.442 307.41 327.807 306.76 329.201C306.443 329.896 306.169 330.599 306.011 331.252C305.846 331.9 305.799 332.51 305.883 332.88C305.925 333.062 305.987 333.182 306.042 333.25C306.107 333.313 306.17 333.338 306.248 333.389C306.407 333.481 306.752 333.669 307.319 333.779L307.636 333.857C307.685 333.867 307.753 333.888 307.785 333.89L307.876 333.894L308.242 333.922L308.67 333.94L309.078 333.913C309.61 333.84 310.074 333.684 310.473 333.462C311.268 333.015 311.848 332.454 312.559 331.889C313.254 331.308 314.022 330.641 314.723 329.886C316.126 328.373 317.328 326.665 318.227 325.38C318.692 324.704 319.058 324.174 319.307 323.812C319.572 323.433 319.734 323.222 319.734 323.222L320.548 323.247C320.548 323.247 320.687 323.471 320.909 323.908C321.113 324.344 321.402 324.998 321.627 325.863C322.075 327.58 322.359 330.219 321.276 333.348C320.726 334.892 319.831 336.584 318.297 338.045C317.526 338.766 316.597 339.417 315.531 339.906C314.468 340.4 313.269 340.713 312.051 340.839C309.602 341.08 307.135 340.538 305.174 339.629C304.656 339.4 304.053 339.113 303.49 338.751C302.918 338.364 302.34 337.922 301.833 337.309C301.327 336.713 300.917 335.989 300.663 335.238C300.419 334.485 300.333 333.736 300.342 333.048C300.377 331.669 300.745 330.553 301.158 329.566C301.578 328.576 302.085 327.722 302.61 326.917C303.661 325.315 304.799 323.926 305.948 322.648C307.083 321.363 308.21 320.178 309.267 319.052C310.335 317.937 311.36 316.906 312.352 316.003C313.339 315.096 314.288 314.315 315.149 313.648C316 312.97 316.802 312.447 317.504 312.066C318.903 311.297 319.88 311.078 319.88 311.078L320.4 311.696Z" fill="#EC9B69"/>
<path id="Vector_41" d="M348.508 369.341C348.508 369.341 347.965 368.634 347.518 367.351C347.281 366.711 347.123 365.92 346.931 365.015C346.752 364.109 346.569 363.085 346.414 361.964C346.249 360.844 346.09 359.628 345.854 358.353C345.616 357.078 345.294 355.746 344.967 354.375C344.629 353.006 344.242 351.601 343.823 350.204C343.624 349.498 343.38 348.817 343.169 348.122C342.934 347.442 342.718 346.797 342.44 346.065C342.182 345.373 341.904 344.679 341.629 343.998C341.33 343.325 341.033 342.659 340.711 342.017C340.078 340.73 339.409 339.52 338.855 338.347C338.29 337.176 337.812 336.047 337.356 334.967C336.885 333.897 336.435 332.882 335.981 331.942C335.525 331.005 335.092 330.124 334.67 329.338C334.249 328.554 333.872 327.836 333.536 327.246C333.199 326.632 332.935 326.151 332.754 325.822C332.568 325.484 332.475 325.288 332.475 325.288L332.877 324.725C332.877 324.725 333.094 324.753 333.49 324.834C333.694 324.868 333.931 324.93 334.21 325.01C334.491 325.088 334.819 325.176 335.166 325.308C335.872 325.558 336.709 325.921 337.613 326.443C338.514 326.965 339.5 327.634 340.46 328.493C341.422 329.349 342.39 330.369 343.256 331.549C344.13 332.721 344.921 334.044 345.5 335.484C346.103 336.917 346.476 338.464 346.804 340.008C347.108 341.532 347.418 343.079 347.727 344.628C347.871 345.355 348.017 346.184 348.154 346.97C348.265 347.752 348.374 348.536 348.449 349.299C348.621 350.832 348.734 352.325 348.848 353.765C348.976 355.203 349.053 356.592 349.177 357.9C349.302 359.209 349.465 360.437 349.583 361.576C349.713 362.712 349.779 363.76 349.812 364.69C349.833 365.623 349.854 366.434 349.758 367.115C349.598 368.471 349.202 369.274 349.202 369.274L348.508 369.341Z" fill="#EC9B69"/>
<path id="Vector_42" d="M324.829 311.281C323.858 311.769 322.939 312.363 322.534 312.517C322.366 312.581 321.862 312.617 321.716 312.638C321.289 312.698 320.619 312.725 320.289 313L318.883 314.13C318.213 314.687 317.432 314.79 316.867 314.129C316.256 313.412 316.598 312.571 317.389 312.055L318.359 311.247C318.993 310.834 319.377 310.178 319.789 309.548C320.626 308.265 322.205 307.439 323.533 306.893C324.367 306.55 325.477 307.044 326.917 307.78C327.625 308.141 328.613 308.91 327.631 309.117C326.808 309.289 324.554 308.317 323.192 310.301C323.125 310.399 322.972 310.661 323.062 310.774C323.333 311.112 324.125 310.556 324.621 310.414C325.317 310.214 325.822 310.394 325.951 310.653C326.09 310.928 325.522 310.933 324.829 311.281Z" fill="#FAB9AF"/>
<path id="Vector_43" d="M347.25 374.036C347.271 372.96 347.173 371.881 347.227 371.456C347.249 371.278 347.453 370.823 347.504 370.687C347.651 370.286 347.943 369.69 347.853 369.273L347.505 367.517C347.323 366.67 347.599 365.941 348.456 365.762C349.384 365.566 349.975 366.26 350.064 367.193L350.328 368.418C350.399 369.165 350.804 369.808 351.173 370.464C351.924 371.797 351.919 373.561 351.781 374.975C351.694 375.863 350.731 376.597 349.396 377.505C348.739 377.951 347.587 378.449 347.864 377.497C348.098 376.699 350.028 375.194 348.895 373.073C348.84 372.969 348.677 372.711 348.534 372.737C348.104 372.814 348.228 373.766 348.122 374.265C347.973 374.965 347.574 375.32 347.281 375.311C346.972 375.3 347.235 374.803 347.25 374.036Z" fill="#FAB9AF"/>
</g>
<path id="Vector_44" d="M325.434 318.138C325.434 318.138 328.132 321.8 331.489 321.304C331.489 321.304 330.791 321.633 330.622 322.168C330.622 322.168 327.433 321.935 325.434 318.138Z" fill="#E8948B"/>
</g>
<g id="Group_16">
<path id="Vector_45" d="M328.34 289.748C328.435 289.366 328.694 289.211 329.081 289.305L331.881 289.984C332.269 290.078 332.426 290.334 332.331 290.716L331.658 293.422C331.562 293.804 331.303 293.96 330.915 293.866L328.115 293.186C327.729 293.092 327.571 292.836 327.667 292.454L328.34 289.748ZM337.484 270.513C340.254 271.185 341.408 273.024 340.72 275.787L339.279 281.581C339.198 281.904 339.058 282.088 338.768 282.237L334.092 284.907C333.833 285.063 333.692 285.246 333.612 285.57L333.29 286.864C333.195 287.247 332.936 287.402 332.548 287.307L329.748 286.628C329.361 286.534 329.204 286.278 329.299 285.896L329.943 283.308C330.016 283.014 330.156 282.83 330.416 282.675L335.455 279.687L336.464 275.628C336.654 274.863 336.31 274.344 335.565 274.163L334.135 273.816C333.331 273.621 332.842 273.939 332.652 274.704L332.081 276.998C332.008 277.292 331.785 277.425 331.487 277.352L328.389 276.601C328.062 276.522 327.957 276.309 328.03 276.015L328.806 272.898C329.493 270.133 331.348 269.024 334.148 269.703L337.484 270.513Z" fill="#EC9B69"/>
</g>
</g>
</svg>
